<svg xmlns="http://www.w3.org/2000/svg" xmlns:xlink="http://www.w3.org/1999/xlink" viewBox="0 0 1000 500"><defs><linearGradient id="Gradiente_sem_nome_3" x1="483.27" y1="270.42" x2="539.63" y2="270.42" gradientUnits="userSpaceOnUse"><stop offset="0" stop-color="#bf9e00"/><stop offset="1" stop-color="#f15a24"/></linearGradient></defs><title>AllBarber</title><g id="Camada_3" data-name="Camada 3"><path d="M197.58,300.89l-10-20.48H115.8l-9.91,20.48H99.58l49.58-103h5l49.84,103Zm-46-95.44L118.25,275H185Z"/><path d="M214.33,300.89V198h5.79v97.5H284v5.41Z"/><path d="M295.59,300.89V198h5.8v97.5h63.88v5.41Z"/><path d="M450.27,271.4a27.06,27.06,0,0,1-2.64,11.91,30,30,0,0,1-7,9.4,32.19,32.19,0,0,1-10.11,6.12,33.46,33.46,0,0,1-12,2.19l-41.6-.13v-103H414a37.63,37.63,0,0,1,12.43,2,29.31,29.31,0,0,1,10,5.8,26.39,26.39,0,0,1,6.63,9.27,30.5,30.5,0,0,1,2.38,12.3,25.84,25.84,0,0,1-2.57,11.2,28.15,28.15,0,0,1-6.83,9.15,23.51,23.51,0,0,1,6,4.25,28,28,0,0,1,4.51,5.73,27.09,27.09,0,0,1,2.83,6.7A26.79,26.79,0,0,1,450.27,271.4Zm-24.6-43.79a13.63,13.63,0,0,0-1.42-6.44,13.19,13.19,0,0,0-3.8-4.51A17,17,0,0,0,415,214a23.3,23.3,0,0,0-6.44-.9H396.82v28.34c2.14.08,4.08.13,5.8.13h5.92a26.23,26.23,0,0,0,6.44-.78,16.3,16.3,0,0,0,5.47-2.44,12.29,12.29,0,0,0,3.8-4.32A13.23,13.23,0,0,0,425.67,227.61Zm3.86,42.63a14.3,14.3,0,0,0-1.22-5.93,13.38,13.38,0,0,0-3.35-4.57,15.8,15.8,0,0,0-4.89-2.9,17.25,17.25,0,0,0-6-1c-2.92-.08-5.8-.11-8.63-.06s-5.71.06-8.63.06v28.46h14.94a27.32,27.32,0,0,0,6.44-.77,16.78,16.78,0,0,0,5.73-2.51,13.72,13.72,0,0,0,4.06-4.38A12.39,12.39,0,0,0,429.53,270.24Z"/><path d="M656.07,300.89h-22l-7.32-23.44a38.77,38.77,0,0,0-2.89-7.09,21.87,21.87,0,0,0-4.18-5.53,17.23,17.23,0,0,0-5.85-3.61,22.62,22.62,0,0,0-8-1.29h-7.45v41h-19.7V198l40.62-.12a32.78,32.78,0,0,1,12.22,2.25,29.65,29.65,0,0,1,9.77,6.25,28.58,28.58,0,0,1,6.42,9.4A29.5,29.5,0,0,1,650,227.48a27.7,27.7,0,0,1-1.41,8.76,29.44,29.44,0,0,1-4,7.85,30.58,30.58,0,0,1-6.07,6.38,25.72,25.72,0,0,1-7.74,4.18,19.68,19.68,0,0,1,7.93,5.22,25.27,25.27,0,0,1,4.86,8.18q.9,2.19,1.67,4.37c.51,1.47,1,3,1.6,4.58l1.79,5.15,2.11,6.12c.94,2.83,1.82,5.26,2.64,7.27A37.57,37.57,0,0,0,656.07,300.89Zm-26-72a15.62,15.62,0,0,0-1.36-6.56,16.35,16.35,0,0,0-3.67-5.16,16.82,16.82,0,0,0-5.47-3.41,18.69,18.69,0,0,0-6.76-1.22H598.37v32.07H612.8a20.52,20.52,0,0,0,6.76-1.1,16.07,16.07,0,0,0,5.47-3.15,15,15,0,0,0,5-11.47Z"/><path d="M741.84,271.4a27.06,27.06,0,0,1-2.64,11.91,30,30,0,0,1-7,9.4,32.19,32.19,0,0,1-10.11,6.12A33.42,33.42,0,0,1,710,301l-41.6-.13v-103h37.1a37.53,37.53,0,0,1,12.42,2,29.21,29.21,0,0,1,10,5.8,26.29,26.29,0,0,1,6.64,9.27,30.5,30.5,0,0,1,2.38,12.3,25.71,25.71,0,0,1-2.58,11.2,28,28,0,0,1-6.82,9.15,23.51,23.51,0,0,1,6,4.25,27.61,27.61,0,0,1,4.5,5.73,27.17,27.17,0,0,1,3.8,13.85Zm-24.6-43.79a13.75,13.75,0,0,0-1.41-6.44,13.3,13.3,0,0,0-3.8-4.51,17,17,0,0,0-5.47-2.71,23.35,23.35,0,0,0-6.44-.9H688.4v28.34c2.14.08,4.07.13,5.79.13h5.93a26.29,26.29,0,0,0,6.44-.78A16.3,16.3,0,0,0,712,238.3a12.38,12.38,0,0,0,3.8-4.32A13.35,13.35,0,0,0,717.24,227.61Zm3.87,42.63a14.3,14.3,0,0,0-1.22-5.93,13.51,13.51,0,0,0-3.35-4.57,15.74,15.74,0,0,0-4.9-2.9,17.21,17.21,0,0,0-6-1c-2.92-.08-5.79-.11-8.63-.06s-5.71.06-8.62.06v28.46h14.94a27.32,27.32,0,0,0,6.44-.77,16.86,16.86,0,0,0,5.73-2.51,13.69,13.69,0,0,0,4-4.38A12.4,12.4,0,0,0,721.11,270.24Z"/><path d="M824,300.89H756V198h68v16.49H775.58v24.6h47.79v16.1H775.58V283.5H824Z"/><path d="M916.87,300.89h-22l-7.32-23.44a37.4,37.4,0,0,0-2.89-7.09,21.87,21.87,0,0,0-4.18-5.53,17.09,17.09,0,0,0-5.84-3.61,22.65,22.65,0,0,0-8-1.29h-7.45v41H839.46V198l40.63-.12a32.73,32.73,0,0,1,12.21,2.25,29.54,29.54,0,0,1,9.77,6.25,28.75,28.75,0,0,1,6.43,9.4,29.5,29.5,0,0,1,2.31,11.72,27.7,27.7,0,0,1-1.41,8.76,29.41,29.41,0,0,1-4,7.85,30.63,30.63,0,0,1-6.08,6.38,25.48,25.48,0,0,1-7.74,4.18,19.61,19.61,0,0,1,7.93,5.22,25.47,25.47,0,0,1,4.87,8.18c.59,1.46,1.15,2.92,1.66,4.37s1,3,1.6,4.58,1.15,3.3,1.79,5.15,1.35,3.88,2.11,6.12c.95,2.83,1.83,5.26,2.64,7.27A36.53,36.53,0,0,0,916.87,300.89Zm-26-72a15.61,15.61,0,0,0-1.35-6.56,16.51,16.51,0,0,0-3.67-5.16,16.87,16.87,0,0,0-5.48-3.41,18.65,18.65,0,0,0-6.76-1.22H859.17v32.07h14.42a20.48,20.48,0,0,0,6.76-1.1,16.12,16.12,0,0,0,5.48-3.15,14.93,14.93,0,0,0,5-11.47Z"/><path d="M519.68,197.86l-11.4-24.3-.15-.29c-1.28-2.24-2.82-3.79-5.23-2.81-2.62,1.08-11.63,12.18-10.63,14.84l8.43,16.49a3.53,3.53,0,0,1,.05,3.15l-45.33,95.95h.12c13.29,0,21.23,2.23,31-19.72l.42-.89,21.76-46.76a3.56,3.56,0,0,1,6.46,0l21.75,46.76.34.74a34.24,34.24,0,0,0,24.53,19.23,3.57,3.57,0,0,0,3.88-5Z"/><path d="M497.16,212.54l21.2-45.24a1.19,1.19,0,0,1,1.82-.43h0a1.18,1.18,0,0,1,.35,1.42c-1.55,3.43-6.63,17.32,2.24,36.09"/><circle cx="509.97" cy="199.33" r="3.62" style="fill:#fff"/><polygon points="483.26 300.89 511.89 239.95 539.63 300.89 483.26 300.89" style="fill:url(#Gradiente_sem_nome_3)"/><text transform="translate(267.55 360.16)" style="font-size:34.026920318603516px;fill:#bf9e00;font-family:KeepCalm-Light, Keep Calm;font-weight:300;letter-spacing:0.8999939797889069em">BARBEARIA</text></g></svg>